<svg width="1342" height="1539" viewBox="0 0 1342 1539" fill="none" xmlns="http://www.w3.org/2000/svg">
<path d="M384.932 1325.32C219.548 1213.64 59.5817 945.063 196.562 772.54C323.565 612.583 406.247 768.769 558.576 660.117C710.906 551.466 613.751 287.7 790.413 204.459C892.953 156.143 1025.6 205.946 1103.28 341.009C1180.97 476.073 1203.71 696.396 1086.43 989.121C975.649 1265.63 824.293 1365.9 688.624 1388.93C552.955 1411.96 432.971 1357.76 384.932 1325.32Z" stroke="#051C45" stroke-width="2.10293" stroke-miterlimit="10"/>
<path d="M1067.68 990.733C966.405 1244.51 827.767 1337.63 702.953 1359.61C578.936 1381.21 468.89 1332.5 423.642 1302.7C269.934 1200.75 120.978 953.303 243.115 791.192C355.889 641.507 431.959 777.997 571.517 676.865C575.481 673.971 579.269 670.969 582.892 667.864C681.053 583.821 656.567 424.063 719.534 324.471C736.627 297.437 760.059 274.714 793.985 259.257C891.573 214.797 1014.11 262.022 1085.23 387.406C1156.58 513.501 1175.91 718.892 1067.68 990.733Z" stroke="#051C45" stroke-width="2.10293" stroke-miterlimit="10"/>
<path d="M1048.93 992.343C957.16 1223.39 831.24 1309.36 717.28 1330.28C604.917 1350.46 504.726 1307.39 462.353 1280.09C320.039 1188.38 182.37 961.588 289.667 809.843C388.215 670.472 457.961 787.708 584.457 693.611C588.103 690.899 591.577 688.065 594.915 685.155C685.127 606.683 667.481 462.043 727.732 372.682C744.184 348.282 766.232 327.776 797.558 314.055C890.213 273.471 1002.63 318.096 1067.19 433.804C1132.18 550.929 1148.1 741.386 1048.93 992.343Z" stroke="#051C45" stroke-width="2.10293" stroke-miterlimit="10"/>
<path d="M1030.17 993.956C947.915 1202.27 834.761 1281.41 731.609 1300.95C630.943 1320.03 540.612 1282.2 501.064 1257.47C370.317 1175.71 243.762 969.934 336.22 828.496C420.547 699.495 483.805 797.138 597.397 710.358C600.719 707.82 603.885 705.161 606.936 702.447C689.201 629.545 678.423 500.027 735.93 420.895C751.748 399.129 772.416 380.856 801.131 368.852C888.877 332.173 991.152 374.17 1049.14 480.2C1107.79 588.358 1120.3 763.882 1030.17 993.956Z" stroke="#051C45" stroke-width="2.10293" stroke-miterlimit="10"/>
<path d="M1011.42 995.567C939.016 1181.31 838.249 1253.23 745.935 1271.63C656.937 1289.36 576.502 1257.01 539.772 1234.86C420.619 1163 305.159 978.359 382.77 847.147C452.894 728.593 509.632 806.53 610.335 727.105C613.334 724.739 616.19 722.258 618.956 719.739C693.272 652.408 689.4 538.015 744.125 469.106C759.318 449.975 778.607 433.958 804.7 423.65C887.567 390.914 979.893 430.097 1031.08 526.597C1083.62 625.635 1092.89 786.561 1011.42 995.567Z" stroke="#051C45" stroke-width="2.10293" stroke-miterlimit="10"/>
<path d="M992.666 997.179C929.828 1160.21 841.74 1225.04 760.262 1242.3C682.933 1258.68 612.403 1231.8 578.482 1212.24C470.956 1150.24 366.585 986.892 429.322 865.799C485.28 757.79 535.442 815.875 623.276 743.851C625.951 741.657 628.498 739.353 630.979 737.03C697.346 675.269 700.428 576.017 752.324 517.317C766.906 500.824 784.815 487.087 808.273 478.447C886.293 449.711 968.449 486.152 1013.03 572.993C1059.27 663.043 1065.16 809.088 992.666 997.179Z" stroke="#051C45" stroke-width="2.10293" stroke-miterlimit="10"/>
<path d="M973.913 998.79C920.618 1139.1 845.231 1196.83 774.591 1212.97C708.929 1227.98 648.315 1206.57 617.193 1189.62C521.334 1137.42 428.077 995.571 475.876 884.45C517.743 787.12 561.223 825.156 636.218 760.598C638.568 758.575 640.806 756.45 643.003 754.322C701.421 698.132 711.519 614.053 760.523 565.529C774.509 551.68 791.037 540.252 811.846 533.245C885.06 508.592 956.991 542.22 994.983 619.391C1034.9 700.461 1037.41 831.605 973.913 998.79Z" stroke="#051C45" stroke-width="2.10293" stroke-miterlimit="10"/>
<path d="M955.16 1000.4C911.375 1117.98 848.721 1168.59 788.918 1183.65C734.921 1197.24 684.242 1181.32 655.903 1167.01C571.761 1124.51 484.846 1002.37 522.427 903.101C554.503 818.375 586.954 834.349 649.157 777.344C651.181 775.488 653.113 773.546 655.026 771.613C705.495 720.993 722.685 652.145 768.722 613.739C782.133 602.551 797.275 593.459 815.419 588.042C883.874 567.6 945.512 598.302 976.934 665.787C1010.51 737.895 1009.64 854.108 955.16 1000.4Z" stroke="#051C45" stroke-width="2.10293" stroke-miterlimit="10"/>
<path d="M936.408 1002.01C902.085 1096.83 852.205 1140.29 803.246 1154.32C760.907 1166.45 720.189 1156.03 694.614 1144.39C622.249 1111.47 551.66 1013.48 568.98 921.754C583.232 846.277 612.61 843.424 662.097 794.091C663.794 792.4 665.42 790.642 667.048 788.904C709.569 743.855 733.935 690.348 776.92 661.951C789.781 653.454 803.526 646.727 818.992 642.84C882.74 626.819 934.001 654.405 958.885 712.184C986.087 775.35 981.811 876.584 936.408 1002.01Z" stroke="#051C45" stroke-width="2.10293" stroke-miterlimit="10"/>
<path d="M917.654 1003.62C892.715 1075.65 855.665 1111.88 817.573 1124.99C786.871 1135.56 756.159 1130.66 733.323 1121.78C672.8 1098.23 614.194 1022.58 615.532 940.405C616.581 875.974 638.125 852.335 675.037 810.837C676.401 809.305 677.727 807.738 679.07 806.196C713.642 766.718 745.25 728.739 785.117 710.162C797.449 704.416 809.786 700.068 822.563 697.637C881.657 686.392 922.437 710.534 940.833 758.58C961.606 812.835 953.876 899.015 917.654 1003.62Z" stroke="#051C45" stroke-width="2.10293" stroke-miterlimit="10"/>
<path d="M662.085 959.057C650.048 903.046 664.469 857.396 691.093 823.488C717.717 789.58 756.543 767.415 793.316 758.375C868.768 739.826 908.556 759.597 922.785 804.977C937.013 850.357 925.684 921.347 898.903 1005.24C872.122 1089.12 820.669 1113.65 772.036 1099.16C723.401 1084.68 677.587 1031.19 662.085 959.057Z" stroke="#051C45" stroke-width="2.10293" stroke-miterlimit="10"/>
</svg>
